<svg xmlns="http://www.w3.org/2000/svg" xmlns:xlink="http://www.w3.org/1999/xlink" width="1920" zoomAndPan="magnify" viewBox="0 0 1440 809.999993" height="1080" preserveAspectRatio="xMidYMid meet" version="1.0"><defs><g/><clipPath id="56bdb8ce01"><path d="M 25.199219 213.535156 L 416.785156 213.535156 L 416.785156 605.121094 L 25.199219 605.121094 Z M 25.199219 213.535156 " clip-rule="nonzero"/></clipPath><clipPath id="7ee7ba2523"><path d="M 127.601562 524.523438 L 314.382812 524.523438 L 220.992188 326.933594 Z M 25.199219 548.007812 L 183.289062 213.535156 L 258.695312 213.535156 L 416.785156 548.007812 L 379.082031 605.121094 L 62.902344 605.121094 Z M 25.199219 548.007812 " clip-rule="evenodd"/></clipPath><linearGradient x1="20" gradientTransform="matrix(9.789644, 0, 0, 9.789644, 25.200003, 213.534928)" y1="-0.000000214235" x2="20" gradientUnits="userSpaceOnUse" y2="39.999998" id="8c73955150"><stop stop-opacity="1" stop-color="rgb(99.198914%, 51.399231%, 14.498901%)" offset="0"/><stop stop-opacity="1" stop-color="rgb(99.198914%, 51.399231%, 14.498901%)" offset="0.5"/><stop stop-opacity="1" stop-color="rgb(99.198914%, 51.399231%, 14.498901%)" offset="0.625"/><stop stop-opacity="1" stop-color="rgb(99.19281%, 51.213074%, 14.472961%)" offset="0.6875"/><stop stop-opacity="1" stop-color="rgb(99.180603%, 50.889587%, 14.427185%)" offset="0.695312"/><stop stop-opacity="1" stop-color="rgb(99.171448%, 50.614929%, 14.389038%)" offset="0.703125"/><stop stop-opacity="1" stop-color="rgb(99.162292%, 50.338745%, 14.349365%)" offset="0.710938"/><stop stop-opacity="1" stop-color="rgb(99.151611%, 50.062561%, 14.311218%)" offset="0.71875"/><stop stop-opacity="1" stop-color="rgb(99.142456%, 49.787903%, 14.273071%)" offset="0.726563"/><stop stop-opacity="1" stop-color="rgb(99.133301%, 49.511719%, 14.233398%)" offset="0.734375"/><stop stop-opacity="1" stop-color="rgb(99.12262%, 49.235535%, 14.195251%)" offset="0.742188"/><stop stop-opacity="1" stop-color="rgb(99.113464%, 48.959351%, 14.157104%)" offset="0.75"/><stop stop-opacity="1" stop-color="rgb(99.104309%, 48.684692%, 14.117432%)" offset="0.757812"/><stop stop-opacity="1" stop-color="rgb(99.093628%, 48.408508%, 14.079285%)" offset="0.765625"/><stop stop-opacity="1" stop-color="rgb(99.084473%, 48.132324%, 14.041138%)" offset="0.773437"/><stop stop-opacity="1" stop-color="rgb(99.075317%, 47.857666%, 14.001465%)" offset="0.78125"/><stop stop-opacity="1" stop-color="rgb(99.064636%, 47.581482%, 13.963318%)" offset="0.789062"/><stop stop-opacity="1" stop-color="rgb(99.055481%, 47.305298%, 13.923645%)" offset="0.796875"/><stop stop-opacity="1" stop-color="rgb(99.046326%, 47.03064%, 13.885498%)" offset="0.804688"/><stop stop-opacity="1" stop-color="rgb(99.035645%, 46.754456%, 13.847351%)" offset="0.8125"/><stop stop-opacity="1" stop-color="rgb(99.026489%, 46.478271%, 13.807678%)" offset="0.820312"/><stop stop-opacity="1" stop-color="rgb(99.017334%, 46.202087%, 13.769531%)" offset="0.828125"/><stop stop-opacity="1" stop-color="rgb(99.006653%, 45.927429%, 13.731384%)" offset="0.835938"/><stop stop-opacity="1" stop-color="rgb(98.997498%, 45.651245%, 13.691711%)" offset="0.84375"/><stop stop-opacity="1" stop-color="rgb(98.988342%, 45.375061%, 13.653564%)" offset="0.851562"/><stop stop-opacity="1" stop-color="rgb(98.977661%, 45.100403%, 13.615417%)" offset="0.859375"/><stop stop-opacity="1" stop-color="rgb(98.968506%, 44.824219%, 13.575745%)" offset="0.867187"/><stop stop-opacity="1" stop-color="rgb(98.959351%, 44.548035%, 13.537598%)" offset="0.875"/><stop stop-opacity="1" stop-color="rgb(98.948669%, 44.271851%, 13.497925%)" offset="0.882812"/><stop stop-opacity="1" stop-color="rgb(98.939514%, 43.997192%, 13.459778%)" offset="0.890625"/><stop stop-opacity="1" stop-color="rgb(98.928833%, 43.721008%, 13.421631%)" offset="0.898438"/><stop stop-opacity="1" stop-color="rgb(98.919678%, 43.444824%, 13.381958%)" offset="0.90625"/><stop stop-opacity="1" stop-color="rgb(98.910522%, 43.170166%, 13.343811%)" offset="0.914062"/><stop stop-opacity="1" stop-color="rgb(98.899841%, 42.893982%, 13.305664%)" offset="0.921875"/><stop stop-opacity="1" stop-color="rgb(98.890686%, 42.617798%, 13.265991%)" offset="0.929688"/><stop stop-opacity="1" stop-color="rgb(98.881531%, 42.34314%, 13.227844%)" offset="0.9375"/><stop stop-opacity="1" stop-color="rgb(98.87085%, 42.066956%, 13.189697%)" offset="0.945312"/><stop stop-opacity="1" stop-color="rgb(98.861694%, 41.790771%, 13.150024%)" offset="0.953125"/><stop stop-opacity="1" stop-color="rgb(98.852539%, 41.514587%, 13.111877%)" offset="0.960937"/><stop stop-opacity="1" stop-color="rgb(98.841858%, 41.239929%, 13.072205%)" offset="0.96875"/><stop stop-opacity="1" stop-color="rgb(98.832703%, 40.963745%, 13.034058%)" offset="0.976562"/><stop stop-opacity="1" stop-color="rgb(98.823547%, 40.687561%, 12.995911%)" offset="0.984375"/><stop stop-opacity="1" stop-color="rgb(98.812866%, 40.412903%, 12.956238%)" offset="0.992188"/><stop stop-opacity="1" stop-color="rgb(98.803711%, 40.136719%, 12.918091%)" offset="1"/></linearGradient></defs><path fill="#fecd2f" d="M 220.988281 230.359375 L 379.078125 564.835938 L 62.902344 564.835938 Z M 220.988281 230.359375 " fill-opacity="1" fill-rule="nonzero"/><g clip-path="url(#56bdb8ce01)"><g clip-path="url(#7ee7ba2523)"><path fill="url(#8c73955150)" d="M 25.199219 213.535156 L 25.199219 605.121094 L 416.785156 605.121094 L 416.785156 213.535156 Z M 25.199219 213.535156 " fill-rule="nonzero"/></g></g><g fill="#000000" fill-opacity="1"><g transform="translate(513.624903, 472.217839)"><g><path d="M 79.796875 -25.03125 L 37.375 -25.03125 L 26.953125 0 L 2.09375 0 L 59.8125 -133 L 61.203125 -133 L 118.921875 0 L 89.71875 0 Z M 71.453125 -46.25 L 59.109375 -77.375 L 46.25 -46.25 Z M 71.453125 -46.25 "/></g></g></g><g fill="#000000" fill-opacity="1"><g transform="translate(634.62287, 472.217839)"><g><path d="M 36.859375 -137.171875 L 36.859375 0 L 12.515625 0 L 12.515625 -137.171875 Z M 36.859375 -137.171875 "/></g></g></g><g fill="#000000" fill-opacity="1"><g transform="translate(683.995605, 472.217839)"><g><path d="M 89.015625 -75.96875 L 89.015625 0 L 66.9375 0 L 65.203125 -12.171875 C 62.535156 -7.304688 58.796875 -3.453125 53.984375 -0.609375 C 49.171875 2.234375 43.519531 3.65625 37.03125 3.65625 C 30.070312 3.65625 24.273438 1.507812 19.640625 -2.78125 C 15.003906 -7.070312 12.628906 -12.519531 12.515625 -19.125 L 12.515625 -75.96875 L 36.859375 -75.96875 L 36.859375 -28.171875 C 37.203125 -20.742188 40.617188 -17.03125 47.109375 -17.03125 C 52.441406 -17.03125 56.703125 -19.640625 59.890625 -24.859375 C 63.078125 -30.078125 64.671875 -36.800781 64.671875 -45.03125 L 64.671875 -75.96875 Z M 89.015625 -75.96875 "/></g></g></g><g fill="#000000" fill-opacity="1"><g transform="translate(785.522649, 472.217839)"><g><path d="M 36.34375 -58.59375 C 38.425781 -62.644531 41.289062 -66.289062 44.9375 -69.53125 C 48.59375 -72.78125 52.332031 -75.300781 56.15625 -77.09375 C 59.976562 -78.894531 62.992188 -79.796875 65.203125 -79.796875 L 63.984375 -55.46875 C 63.285156 -55.582031 62.300781 -55.640625 61.03125 -55.640625 C 56.15625 -55.640625 51.863281 -54.363281 48.15625 -51.8125 C 44.445312 -49.257812 41.609375 -45.984375 39.640625 -41.984375 C 37.671875 -37.984375 36.6875 -33.898438 36.6875 -29.734375 L 36.6875 0 L 12.515625 0 L 12.515625 -75.96875 L 34.421875 -75.96875 Z M 36.34375 -58.59375 "/></g></g></g><g fill="#000000" fill-opacity="1"><g transform="translate(856.80018, 472.217839)"><g><path d="M 94.234375 -75.96875 L 94.234375 0 L 69.890625 0 L 69.890625 -9.390625 C 62.585938 -1.734375 54.128906 2.09375 44.515625 2.09375 C 33.265625 2.09375 24.132812 -1.265625 17.125 -7.984375 C 10.113281 -14.710938 6.609375 -24.6875 6.609375 -37.90625 C 6.609375 -46.25 8.316406 -53.578125 11.734375 -59.890625 C 15.148438 -66.210938 19.695312 -71.109375 25.375 -74.578125 C 31.0625 -78.054688 37.148438 -79.796875 43.640625 -79.796875 C 50.359375 -79.796875 55.6875 -78.78125 59.625 -76.75 C 63.570312 -74.726562 67.050781 -71.863281 70.0625 -68.15625 L 71.625 -75.96875 Z M 51.46875 -17.734375 C 59.925781 -17.734375 66.066406 -21.554688 69.890625 -29.203125 L 69.890625 -47.8125 C 68.503906 -51.519531 66.097656 -54.472656 62.671875 -56.671875 C 59.253906 -58.878906 55.226562 -59.984375 50.59375 -59.984375 C 45.257812 -59.984375 40.707031 -58.007812 36.9375 -54.0625 C 33.175781 -50.125 31.296875 -45.144531 31.296875 -39.125 C 31.296875 -35.175781 32.222656 -31.550781 34.078125 -28.25 C 35.929688 -24.945312 38.394531 -22.367188 41.46875 -20.515625 C 44.539062 -18.660156 47.875 -17.734375 51.46875 -17.734375 Z M 51.46875 -17.734375 "/></g></g></g><g fill="#000000" fill-opacity="1"><g transform="translate(958.326231, 473.116585)"><g><path d="M 74.015625 -65.15625 C 81.191406 -62.375 86.863281 -58.40625 91.03125 -53.25 C 95.207031 -48.09375 97.296875 -42.097656 97.296875 -35.265625 C 97.296875 -27.273438 95.351562 -20.644531 91.46875 -15.375 C 87.59375 -10.101562 82.5 -6.222656 76.1875 -3.734375 C 69.875 -1.242188 62.953125 0 55.421875 0 L 18.0625 0 L 18.0625 -125.609375 L 50.5625 -125.609375 C 63.414062 -125.609375 73.375 -122.972656 80.4375 -117.703125 C 87.5 -112.429688 91.03125 -104.523438 91.03125 -93.984375 C 91.03125 -87.390625 89.550781 -81.628906 86.59375 -76.703125 C 83.644531 -71.773438 79.453125 -67.925781 74.015625 -65.15625 Z M 34.921875 -70.703125 L 54.03125 -70.703125 C 60.519531 -70.703125 65.410156 -72.554688 68.703125 -76.265625 C 72.003906 -79.972656 73.65625 -84.722656 73.65625 -90.515625 C 73.65625 -96.890625 71.6875 -101.640625 67.75 -104.765625 C 63.8125 -107.890625 58.3125 -109.453125 51.25 -109.453125 L 34.921875 -109.453125 Z M 54.71875 -15.640625 C 62.019531 -15.640625 68.046875 -17.285156 72.796875 -20.578125 C 77.546875 -23.878906 79.921875 -28.71875 79.921875 -35.09375 C 79.921875 -41.695312 77.34375 -46.5625 72.1875 -49.6875 C 67.03125 -52.8125 60.804688 -54.375 53.515625 -54.375 L 34.921875 -54.375 L 34.921875 -15.640625 Z M 54.71875 -15.640625 "/></g></g></g><g fill="#000000" fill-opacity="1"><g transform="translate(1065.869385, 473.116585)"><g><path d="M 7.8125 -36.65625 C 7.8125 -43.71875 9.519531 -50.171875 12.9375 -56.015625 C 16.351562 -61.867188 21.101562 -66.472656 27.1875 -69.828125 C 33.269531 -73.191406 40.132812 -74.875 47.78125 -74.875 C 55.425781 -74.875 62.226562 -73.191406 68.1875 -69.828125 C 74.15625 -66.472656 78.789062 -61.898438 82.09375 -56.109375 C 85.394531 -50.316406 87.046875 -43.832031 87.046875 -36.65625 C 87.046875 -29.476562 85.394531 -22.960938 82.09375 -17.109375 C 78.789062 -11.265625 74.125 -6.660156 68.09375 -3.296875 C 62.070312 0.0546875 55.179688 1.734375 47.421875 1.734375 C 39.898438 1.734375 33.125 0.144531 27.09375 -3.03125 C 21.070312 -6.21875 16.351562 -10.707031 12.9375 -16.5 C 9.519531 -22.289062 7.8125 -29.007812 7.8125 -36.65625 Z M 24.15625 -36.484375 C 24.15625 -31.960938 25.164062 -27.789062 27.1875 -23.96875 C 29.21875 -20.144531 32 -17.132812 35.53125 -14.9375 C 39.0625 -12.738281 42.96875 -11.640625 47.25 -11.640625 C 53.96875 -11.640625 59.523438 -14.015625 63.921875 -18.765625 C 68.328125 -23.515625 70.53125 -29.421875 70.53125 -36.484375 C 70.53125 -43.546875 68.328125 -49.476562 63.921875 -54.28125 C 59.523438 -59.09375 53.96875 -61.5 47.25 -61.5 C 42.851562 -61.5 38.914062 -60.367188 35.4375 -58.109375 C 31.96875 -55.847656 29.21875 -52.804688 27.1875 -48.984375 C 25.164062 -45.171875 24.15625 -41.003906 24.15625 -36.484375 Z M 24.15625 -36.484375 "/></g></g></g><g fill="#000000" fill-opacity="1"><g transform="translate(1160.556002, 473.116585)"><g><path d="M 7.8125 -36.65625 C 7.8125 -43.71875 9.519531 -50.171875 12.9375 -56.015625 C 16.351562 -61.867188 21.101562 -66.472656 27.1875 -69.828125 C 33.269531 -73.191406 40.132812 -74.875 47.78125 -74.875 C 55.425781 -74.875 62.226562 -73.191406 68.1875 -69.828125 C 74.15625 -66.472656 78.789062 -61.898438 82.09375 -56.109375 C 85.394531 -50.316406 87.046875 -43.832031 87.046875 -36.65625 C 87.046875 -29.476562 85.394531 -22.960938 82.09375 -17.109375 C 78.789062 -11.265625 74.125 -6.660156 68.09375 -3.296875 C 62.070312 0.0546875 55.179688 1.734375 47.421875 1.734375 C 39.898438 1.734375 33.125 0.144531 27.09375 -3.03125 C 21.070312 -6.21875 16.351562 -10.707031 12.9375 -16.5 C 9.519531 -22.289062 7.8125 -29.007812 7.8125 -36.65625 Z M 24.15625 -36.484375 C 24.15625 -31.960938 25.164062 -27.789062 27.1875 -23.96875 C 29.21875 -20.144531 32 -17.132812 35.53125 -14.9375 C 39.0625 -12.738281 42.96875 -11.640625 47.25 -11.640625 C 53.96875 -11.640625 59.523438 -14.015625 63.921875 -18.765625 C 68.328125 -23.515625 70.53125 -29.421875 70.53125 -36.484375 C 70.53125 -43.546875 68.328125 -49.476562 63.921875 -54.28125 C 59.523438 -59.09375 53.96875 -61.5 47.25 -61.5 C 42.851562 -61.5 38.914062 -60.367188 35.4375 -58.109375 C 31.96875 -55.847656 29.21875 -52.804688 27.1875 -48.984375 C 25.164062 -45.171875 24.15625 -41.003906 24.15625 -36.484375 Z M 24.15625 -36.484375 "/></g></g></g><g fill="#000000" fill-opacity="1"><g transform="translate(1255.24262, 473.116585)"><g><path d="M 39.609375 -34.578125 L 30.234375 -26.921875 L 30.234375 0 L 14.078125 0 L 14.078125 -134.640625 L 30.234375 -134.640625 L 30.234375 -43.78125 L 67.40625 -73.65625 L 77.3125 -64.984375 L 50.734375 -43.609375 L 80.78125 0 L 61.84375 0 Z M 39.609375 -34.578125 "/></g></g></g><g fill="#000000" fill-opacity="1"><g transform="translate(1341.937338, 473.116585)"><g><path d="M 34.40625 1.5625 C 29.070312 1.5625 24 0.632812 19.1875 -1.21875 C 14.382812 -3.070312 10.476562 -5.789062 7.46875 -9.375 L 14.421875 -18.765625 C 17.316406 -15.984375 20.351562 -13.835938 23.53125 -12.328125 C 26.71875 -10.828125 29.878906 -10.078125 33.015625 -10.078125 C 36.835938 -10.078125 39.960938 -10.828125 42.390625 -12.328125 C 44.828125 -13.835938 46.046875 -16.15625 46.046875 -19.28125 C 46.046875 -21.71875 45.289062 -23.6875 43.78125 -25.1875 C 42.269531 -26.695312 40.5625 -27.796875 38.65625 -28.484375 C 36.75 -29.179688 33.535156 -30.226562 29.015625 -31.625 C 16.734375 -35.5625 10.59375 -42.566406 10.59375 -52.640625 C 10.59375 -58.660156 12.820312 -63.8125 17.28125 -68.09375 C 21.738281 -72.382812 27.96875 -74.53125 35.96875 -74.53125 C 41.0625 -74.53125 45.578125 -73.890625 49.515625 -72.609375 C 53.453125 -71.335938 57.097656 -69.316406 60.453125 -66.546875 L 54.03125 -56.640625 C 52.175781 -58.609375 49.828125 -60.171875 46.984375 -61.328125 C 44.148438 -62.484375 41.460938 -63.117188 38.921875 -63.234375 C 35.671875 -63.234375 32.890625 -62.453125 30.578125 -60.890625 C 28.265625 -59.328125 27.109375 -57.210938 27.109375 -54.546875 C 27.109375 -52.347656 27.859375 -50.523438 29.359375 -49.078125 C 30.867188 -47.628906 32.429688 -46.585938 34.046875 -45.953125 C 35.671875 -45.316406 38.859375 -44.242188 43.609375 -42.734375 C 49.515625 -40.765625 54.117188 -38.21875 57.421875 -35.09375 C 60.722656 -31.96875 62.375 -27.738281 62.375 -22.40625 C 62.375 -15.457031 59.941406 -9.722656 55.078125 -5.203125 C 50.210938 -0.691406 43.320312 1.5625 34.40625 1.5625 Z M 34.40625 1.5625 "/></g></g></g></svg>