<svg xmlns="http://www.w3.org/2000/svg" xmlns:xlink="http://www.w3.org/1999/xlink" width="1640" zoomAndPan="magnify" viewBox="0 0 1230 693.000001" height="924" preserveAspectRatio="xMidYMid meet" version="1.0"><defs><g/><clipPath id="aed6413c59"><path d="M 118.679688 207.824219 L 395.03125 207.824219 L 395.03125 484.175781 L 118.679688 484.175781 Z M 118.679688 207.824219 " clip-rule="nonzero"/></clipPath><clipPath id="5eb557c507"><path d="M 190.945312 427.296875 L 322.765625 427.296875 L 256.855469 287.851562 Z M 118.679688 443.871094 L 230.246094 207.824219 L 283.464844 207.824219 L 395.03125 443.871094 L 368.421875 484.175781 L 145.289062 484.175781 Z M 118.679688 443.871094 " clip-rule="evenodd"/></clipPath><linearGradient x1="20" gradientTransform="matrix(6.908781, 0, 0, 6.908781, 118.679676, 207.825128)" y1="-0.00000125339" x2="20" gradientUnits="userSpaceOnUse" y2="39.999995" id="4f85d42b2c"><stop stop-opacity="1" stop-color="rgb(99.198914%, 51.399231%, 14.498901%)" offset="0"/><stop stop-opacity="1" stop-color="rgb(99.198914%, 51.399231%, 14.498901%)" offset="0.5"/><stop stop-opacity="1" stop-color="rgb(99.198914%, 51.399231%, 14.498901%)" offset="0.625"/><stop stop-opacity="1" stop-color="rgb(99.19281%, 51.213074%, 14.472961%)" offset="0.6875"/><stop stop-opacity="1" stop-color="rgb(99.180603%, 50.889587%, 14.427185%)" offset="0.695312"/><stop stop-opacity="1" stop-color="rgb(99.171448%, 50.614929%, 14.389038%)" offset="0.703125"/><stop stop-opacity="1" stop-color="rgb(99.162292%, 50.338745%, 14.349365%)" offset="0.710938"/><stop stop-opacity="1" stop-color="rgb(99.151611%, 50.062561%, 14.311218%)" offset="0.71875"/><stop stop-opacity="1" stop-color="rgb(99.142456%, 49.787903%, 14.273071%)" offset="0.726562"/><stop stop-opacity="1" stop-color="rgb(99.133301%, 49.511719%, 14.233398%)" offset="0.734375"/><stop stop-opacity="1" stop-color="rgb(99.12262%, 49.235535%, 14.195251%)" offset="0.742188"/><stop stop-opacity="1" stop-color="rgb(99.113464%, 48.959351%, 14.157104%)" offset="0.75"/><stop stop-opacity="1" stop-color="rgb(99.104309%, 48.684692%, 14.117432%)" offset="0.757812"/><stop stop-opacity="1" stop-color="rgb(99.093628%, 48.408508%, 14.079285%)" offset="0.765625"/><stop stop-opacity="1" stop-color="rgb(99.084473%, 48.132324%, 14.041138%)" offset="0.773438"/><stop stop-opacity="1" stop-color="rgb(99.075317%, 47.857666%, 14.001465%)" offset="0.78125"/><stop stop-opacity="1" stop-color="rgb(99.064636%, 47.581482%, 13.963318%)" offset="0.789062"/><stop stop-opacity="1" stop-color="rgb(99.055481%, 47.305298%, 13.923645%)" offset="0.796875"/><stop stop-opacity="1" stop-color="rgb(99.046326%, 47.03064%, 13.885498%)" offset="0.804688"/><stop stop-opacity="1" stop-color="rgb(99.035645%, 46.754456%, 13.847351%)" offset="0.8125"/><stop stop-opacity="1" stop-color="rgb(99.026489%, 46.478271%, 13.807678%)" offset="0.820312"/><stop stop-opacity="1" stop-color="rgb(99.017334%, 46.202087%, 13.769531%)" offset="0.828125"/><stop stop-opacity="1" stop-color="rgb(99.006653%, 45.927429%, 13.731384%)" offset="0.835938"/><stop stop-opacity="1" stop-color="rgb(98.997498%, 45.651245%, 13.691711%)" offset="0.84375"/><stop stop-opacity="1" stop-color="rgb(98.988342%, 45.375061%, 13.653564%)" offset="0.851563"/><stop stop-opacity="1" stop-color="rgb(98.977661%, 45.100403%, 13.615417%)" offset="0.859375"/><stop stop-opacity="1" stop-color="rgb(98.968506%, 44.824219%, 13.575745%)" offset="0.867188"/><stop stop-opacity="1" stop-color="rgb(98.959351%, 44.548035%, 13.537598%)" offset="0.875"/><stop stop-opacity="1" stop-color="rgb(98.948669%, 44.271851%, 13.497925%)" offset="0.882813"/><stop stop-opacity="1" stop-color="rgb(98.939514%, 43.997192%, 13.459778%)" offset="0.890625"/><stop stop-opacity="1" stop-color="rgb(98.928833%, 43.721008%, 13.421631%)" offset="0.898438"/><stop stop-opacity="1" stop-color="rgb(98.919678%, 43.444824%, 13.381958%)" offset="0.90625"/><stop stop-opacity="1" stop-color="rgb(98.910522%, 43.170166%, 13.343811%)" offset="0.914063"/><stop stop-opacity="1" stop-color="rgb(98.899841%, 42.893982%, 13.305664%)" offset="0.921875"/><stop stop-opacity="1" stop-color="rgb(98.890686%, 42.617798%, 13.265991%)" offset="0.929688"/><stop stop-opacity="1" stop-color="rgb(98.881531%, 42.34314%, 13.227844%)" offset="0.9375"/><stop stop-opacity="1" stop-color="rgb(98.87085%, 42.066956%, 13.189697%)" offset="0.945313"/><stop stop-opacity="1" stop-color="rgb(98.861694%, 41.790771%, 13.150024%)" offset="0.953125"/><stop stop-opacity="1" stop-color="rgb(98.852539%, 41.514587%, 13.111877%)" offset="0.960938"/><stop stop-opacity="1" stop-color="rgb(98.841858%, 41.239929%, 13.072205%)" offset="0.96875"/><stop stop-opacity="1" stop-color="rgb(98.832703%, 40.963745%, 13.034058%)" offset="0.976563"/><stop stop-opacity="1" stop-color="rgb(98.823547%, 40.687561%, 12.995911%)" offset="0.984375"/><stop stop-opacity="1" stop-color="rgb(98.812866%, 40.412903%, 12.956238%)" offset="0.992188"/><stop stop-opacity="1" stop-color="rgb(98.803711%, 40.136719%, 12.918091%)" offset="1"/></linearGradient></defs><path fill="#fecd2f" d="M 256.851562 219.699219 L 368.417969 455.746094 L 145.285156 455.746094 Z M 256.851562 219.699219 " fill-opacity="1" fill-rule="nonzero"/><g clip-path="url(#aed6413c59)"><g clip-path="url(#5eb557c507)"><path fill="url(#4f85d42b2c)" d="M 118.679688 207.824219 L 118.679688 484.175781 L 395.03125 484.175781 L 395.03125 207.824219 Z M 118.679688 207.824219 " fill-rule="nonzero"/></g></g><g fill="#000000" fill-opacity="1"><g transform="translate(471.163817, 394.510175)"><g><path d="M 57.59375 -18.0625 L 26.96875 -18.0625 L 19.453125 0 L 1.5 0 L 43.15625 -95.984375 L 44.171875 -95.984375 L 85.828125 0 L 64.734375 0 Z M 51.5625 -33.375 L 42.65625 -55.828125 L 33.375 -33.375 Z M 51.5625 -33.375 "/></g></g></g><g fill="#000000" fill-opacity="1"><g transform="translate(558.485062, 394.510175)"><g><path d="M 26.59375 -99 L 26.59375 0 L 9.03125 0 L 9.03125 -99 Z M 26.59375 -99 "/></g></g></g><g fill="#000000" fill-opacity="1"><g transform="translate(594.116145, 394.510175)"><g><path d="M 64.234375 -54.828125 L 64.234375 0 L 48.3125 0 L 47.046875 -8.78125 C 45.128906 -5.269531 42.429688 -2.488281 38.953125 -0.4375 C 35.484375 1.613281 31.40625 2.640625 26.71875 2.640625 C 21.707031 2.640625 17.523438 1.09375 14.171875 -2 C 10.828125 -5.101562 9.113281 -9.035156 9.03125 -13.796875 L 9.03125 -54.828125 L 26.59375 -54.828125 L 26.59375 -20.328125 C 26.84375 -14.972656 29.3125 -12.296875 34 -12.296875 C 37.851562 -12.296875 40.925781 -14.175781 43.21875 -17.9375 C 45.519531 -21.707031 46.671875 -26.5625 46.671875 -32.5 L 46.671875 -54.828125 Z M 64.234375 -54.828125 "/></g></g></g><g fill="#000000" fill-opacity="1"><g transform="translate(667.385706, 394.510175)"><g><path d="M 26.21875 -42.28125 C 27.726562 -45.207031 29.800781 -47.84375 32.4375 -50.1875 C 35.070312 -52.53125 37.769531 -54.347656 40.53125 -55.640625 C 43.289062 -56.941406 45.460938 -57.59375 47.046875 -57.59375 L 46.171875 -40.03125 C 45.671875 -40.113281 44.960938 -40.15625 44.046875 -40.15625 C 40.523438 -40.15625 37.425781 -39.234375 34.75 -37.390625 C 32.070312 -35.546875 30.019531 -33.179688 28.59375 -30.296875 C 27.175781 -27.410156 26.46875 -24.460938 26.46875 -21.453125 L 26.46875 0 L 9.03125 0 L 9.03125 -54.828125 L 24.84375 -54.828125 Z M 26.21875 -42.28125 "/></g></g></g><g fill="#000000" fill-opacity="1"><g transform="translate(718.82494, 394.510175)"><g><path d="M 68 -54.828125 L 68 0 L 50.4375 0 L 50.4375 -6.78125 C 45.164062 -1.257812 39.0625 1.5 32.125 1.5 C 24.007812 1.5 17.421875 -0.921875 12.359375 -5.765625 C 7.296875 -10.617188 4.765625 -17.816406 4.765625 -27.359375 C 4.765625 -33.378906 6 -38.664062 8.46875 -43.21875 C 10.9375 -47.78125 14.21875 -51.316406 18.3125 -53.828125 C 22.414062 -56.335938 26.8125 -57.59375 31.5 -57.59375 C 36.34375 -57.59375 40.1875 -56.859375 43.03125 -55.390625 C 45.875 -53.929688 48.382812 -51.863281 50.5625 -49.1875 L 51.6875 -54.828125 Z M 37.140625 -12.796875 C 43.242188 -12.796875 47.675781 -15.554688 50.4375 -21.078125 L 50.4375 -34.5 C 49.4375 -37.175781 47.703125 -39.304688 45.234375 -40.890625 C 42.765625 -42.484375 39.859375 -43.28125 36.515625 -43.28125 C 32.660156 -43.28125 29.375 -41.859375 26.65625 -39.015625 C 23.9375 -36.171875 22.578125 -32.578125 22.578125 -28.234375 C 22.578125 -25.390625 23.242188 -22.773438 24.578125 -20.390625 C 25.921875 -18.003906 27.703125 -16.140625 29.921875 -14.796875 C 32.140625 -13.460938 34.546875 -12.796875 37.140625 -12.796875 Z M 37.140625 -12.796875 "/></g></g></g><g fill="#000000" fill-opacity="1"><g transform="translate(792.093822, 395.158771)"><g><path d="M 53.40625 -47.015625 C 58.59375 -45.003906 62.6875 -42.140625 65.6875 -38.421875 C 68.695312 -34.703125 70.203125 -30.378906 70.203125 -25.453125 C 70.203125 -19.679688 68.800781 -14.894531 66 -11.09375 C 63.207031 -7.289062 59.53125 -4.488281 54.96875 -2.6875 C 50.414062 -0.894531 45.425781 0 40 0 L 13.03125 0 L 13.03125 -90.640625 L 36.484375 -90.640625 C 45.765625 -90.640625 52.953125 -88.738281 58.046875 -84.9375 C 63.148438 -81.132812 65.703125 -75.429688 65.703125 -67.828125 C 65.703125 -63.066406 64.632812 -58.910156 62.5 -55.359375 C 60.363281 -51.804688 57.332031 -49.023438 53.40625 -47.015625 Z M 25.203125 -51.03125 L 38.984375 -51.03125 C 43.671875 -51.03125 47.203125 -52.363281 49.578125 -55.03125 C 51.960938 -57.707031 53.15625 -61.140625 53.15625 -65.328125 C 53.15625 -69.921875 51.734375 -73.34375 48.890625 -75.59375 C 46.054688 -77.851562 42.085938 -78.984375 36.984375 -78.984375 L 25.203125 -78.984375 Z M 39.5 -11.28125 C 44.757812 -11.28125 49.101562 -12.472656 52.53125 -14.859375 C 55.957031 -17.242188 57.671875 -20.734375 57.671875 -25.328125 C 57.671875 -30.085938 55.8125 -33.597656 52.09375 -35.859375 C 48.375 -38.117188 43.878906 -39.25 38.609375 -39.25 L 25.203125 -39.25 L 25.203125 -11.28125 Z M 39.5 -11.28125 "/></g></g></g><g fill="#000000" fill-opacity="1"><g transform="translate(869.70506, 395.158771)"><g><path d="M 5.640625 -26.453125 C 5.640625 -31.554688 6.867188 -36.21875 9.328125 -40.4375 C 11.796875 -44.65625 15.222656 -47.972656 19.609375 -50.390625 C 24.003906 -52.816406 28.960938 -54.03125 34.484375 -54.03125 C 39.992188 -54.03125 44.898438 -52.816406 49.203125 -50.390625 C 53.515625 -47.972656 56.859375 -44.675781 59.234375 -40.5 C 61.617188 -36.320312 62.8125 -31.640625 62.8125 -26.453125 C 62.8125 -21.273438 61.617188 -16.570312 59.234375 -12.34375 C 56.859375 -8.125 53.492188 -4.800781 49.140625 -2.375 C 44.796875 0.0390625 39.828125 1.25 34.234375 1.25 C 28.796875 1.25 23.898438 0.101562 19.546875 -2.1875 C 15.203125 -4.488281 11.796875 -7.726562 9.328125 -11.90625 C 6.867188 -16.082031 5.640625 -20.929688 5.640625 -26.453125 Z M 17.421875 -26.328125 C 17.421875 -23.066406 18.148438 -20.054688 19.609375 -17.296875 C 21.078125 -14.546875 23.085938 -12.375 25.640625 -10.78125 C 28.191406 -9.195312 31.015625 -8.40625 34.109375 -8.40625 C 38.953125 -8.40625 42.960938 -10.117188 46.140625 -13.546875 C 49.316406 -16.972656 50.90625 -21.234375 50.90625 -26.328125 C 50.90625 -31.429688 49.316406 -35.710938 46.140625 -39.171875 C 42.960938 -42.640625 38.953125 -44.375 34.109375 -44.375 C 30.929688 -44.375 28.085938 -43.5625 25.578125 -41.9375 C 23.066406 -40.3125 21.078125 -38.117188 19.609375 -35.359375 C 18.148438 -32.597656 17.421875 -29.585938 17.421875 -26.328125 Z M 17.421875 -26.328125 "/></g></g></g><g fill="#000000" fill-opacity="1"><g transform="translate(938.038054, 395.158771)"><g><path d="M 5.640625 -26.453125 C 5.640625 -31.554688 6.867188 -36.21875 9.328125 -40.4375 C 11.796875 -44.65625 15.222656 -47.972656 19.609375 -50.390625 C 24.003906 -52.816406 28.960938 -54.03125 34.484375 -54.03125 C 39.992188 -54.03125 44.898438 -52.816406 49.203125 -50.390625 C 53.515625 -47.972656 56.859375 -44.675781 59.234375 -40.5 C 61.617188 -36.320312 62.8125 -31.640625 62.8125 -26.453125 C 62.8125 -21.273438 61.617188 -16.570312 59.234375 -12.34375 C 56.859375 -8.125 53.492188 -4.800781 49.140625 -2.375 C 44.796875 0.0390625 39.828125 1.25 34.234375 1.25 C 28.796875 1.25 23.898438 0.101562 19.546875 -2.1875 C 15.203125 -4.488281 11.796875 -7.726562 9.328125 -11.90625 C 6.867188 -16.082031 5.640625 -20.929688 5.640625 -26.453125 Z M 17.421875 -26.328125 C 17.421875 -23.066406 18.148438 -20.054688 19.609375 -17.296875 C 21.078125 -14.546875 23.085938 -12.375 25.640625 -10.78125 C 28.191406 -9.195312 31.015625 -8.40625 34.109375 -8.40625 C 38.953125 -8.40625 42.960938 -10.117188 46.140625 -13.546875 C 49.316406 -16.972656 50.90625 -21.234375 50.90625 -26.328125 C 50.90625 -31.429688 49.316406 -35.710938 46.140625 -39.171875 C 42.960938 -42.640625 38.953125 -44.375 34.109375 -44.375 C 30.929688 -44.375 28.085938 -43.5625 25.578125 -41.9375 C 23.066406 -40.3125 21.078125 -38.117188 19.609375 -35.359375 C 18.148438 -32.597656 17.421875 -29.585938 17.421875 -26.328125 Z M 17.421875 -26.328125 "/></g></g></g><g fill="#000000" fill-opacity="1"><g transform="translate(1006.371047, 395.158771)"><g><path d="M 28.578125 -24.953125 L 21.8125 -19.4375 L 21.8125 0 L 10.15625 0 L 10.15625 -97.171875 L 21.8125 -97.171875 L 21.8125 -31.59375 L 48.640625 -53.15625 L 55.796875 -46.890625 L 36.609375 -31.46875 L 58.296875 0 L 44.640625 0 Z M 28.578125 -24.953125 "/></g></g></g><g fill="#000000" fill-opacity="1"><g transform="translate(1068.936484, 395.158771)"><g><path d="M 24.828125 1.125 C 20.984375 1.125 17.328125 0.457031 13.859375 -0.875 C 10.390625 -2.21875 7.566406 -4.179688 5.390625 -6.765625 L 10.40625 -13.546875 C 12.5 -11.535156 14.691406 -9.984375 16.984375 -8.890625 C 19.285156 -7.804688 21.566406 -7.265625 23.828125 -7.265625 C 26.578125 -7.265625 28.828125 -7.804688 30.578125 -8.890625 C 32.335938 -9.984375 33.21875 -11.660156 33.21875 -13.921875 C 33.21875 -15.671875 32.675781 -17.085938 31.59375 -18.171875 C 30.507812 -19.265625 29.273438 -20.0625 27.890625 -20.5625 C 26.515625 -21.0625 24.195312 -21.8125 20.9375 -22.8125 C 12.070312 -25.65625 7.640625 -30.710938 7.640625 -37.984375 C 7.640625 -42.335938 9.25 -46.054688 12.46875 -49.140625 C 15.6875 -52.234375 20.179688 -53.78125 25.953125 -53.78125 C 29.628906 -53.78125 32.890625 -53.320312 35.734375 -52.40625 C 38.578125 -51.488281 41.207031 -50.023438 43.625 -48.015625 L 38.984375 -40.875 C 37.648438 -42.289062 35.957031 -43.414062 33.90625 -44.25 C 31.863281 -45.09375 29.921875 -45.554688 28.078125 -45.640625 C 25.742188 -45.640625 23.738281 -45.070312 22.0625 -43.9375 C 20.394531 -42.8125 19.5625 -41.289062 19.5625 -39.375 C 19.5625 -37.78125 20.101562 -36.457031 21.1875 -35.40625 C 22.269531 -34.363281 23.394531 -33.613281 24.5625 -33.15625 C 25.738281 -32.695312 28.039062 -31.925781 31.46875 -30.84375 C 35.726562 -29.414062 39.050781 -27.570312 41.4375 -25.3125 C 43.820312 -23.0625 45.015625 -20.015625 45.015625 -16.171875 C 45.015625 -11.160156 43.257812 -7.023438 39.75 -3.765625 C 36.238281 -0.503906 31.265625 1.125 24.828125 1.125 Z M 24.828125 1.125 "/></g></g></g><g fill="#000000" fill-opacity="1"><g transform="translate(670.279289, 507.5354)"><g><path d="M 22.21875 -18.9375 L 22.21875 -17.15625 L 4.96875 -17.15625 L 4.96875 -18.9375 Z M 22.21875 -18.9375 "/></g></g></g><g fill="#000000" fill-opacity="1"><g transform="translate(698.409048, 507.5354)"><g><path d="M 10.78125 -33.46875 L 4.6875 -33.46875 L 4.6875 -35.15625 L 10.78125 -35.15625 L 10.78125 -54.859375 C 10.78125 -60.796875 11.609375 -64.96875 13.265625 -67.375 C 14.921875 -69.78125 17.53125 -70.984375 21.09375 -70.984375 C 22.28125 -70.984375 23.53125 -70.734375 24.84375 -70.234375 L 24 -68.921875 C 23.25 -69.359375 22.3125 -69.578125 21.1875 -69.578125 C 18.1875 -69.578125 16.015625 -68.5 14.671875 -66.34375 C 13.328125 -64.1875 12.65625 -60.484375 12.65625 -55.234375 L 12.65625 -35.15625 L 24.84375 -35.15625 L 24.84375 -33.46875 L 12.65625 -33.46875 L 12.65625 0 L 10.78125 0 Z M 10.78125 -33.46875 "/></g></g></g><g fill="#000000" fill-opacity="1"><g transform="translate(725.694917, 507.5354)"><g><path d="M 5.0625 -17.8125 C 5.0625 -21.1875 5.890625 -24.28125 7.546875 -27.09375 C 9.203125 -29.90625 11.4375 -32.140625 14.25 -33.796875 C 17.0625 -35.453125 20.15625 -36.28125 23.53125 -36.28125 C 26.90625 -36.28125 30.015625 -35.453125 32.859375 -33.796875 C 35.703125 -32.140625 37.953125 -29.90625 39.609375 -27.09375 C 41.265625 -24.28125 42.09375 -21.1875 42.09375 -17.8125 C 42.09375 -14.4375 41.265625 -11.34375 39.609375 -8.53125 C 37.953125 -5.71875 35.703125 -3.5 32.859375 -1.875 C 30.015625 -0.25 26.90625 0.5625 23.53125 0.5625 C 20.15625 0.5625 17.046875 -0.234375 14.203125 -1.828125 C 11.359375 -3.421875 9.125 -5.625 7.5 -8.4375 C 5.875 -11.25 5.0625 -14.375 5.0625 -17.8125 Z M 6.9375 -17.8125 C 6.9375 -14.75 7.671875 -11.9375 9.140625 -9.375 C 10.609375 -6.8125 12.609375 -4.78125 15.140625 -3.28125 C 17.671875 -1.78125 20.46875 -1.03125 23.53125 -1.03125 C 26.53125 -1.03125 29.296875 -1.78125 31.828125 -3.28125 C 34.359375 -4.78125 36.375 -6.8125 37.875 -9.375 C 39.375 -11.9375 40.125 -14.75 40.125 -17.8125 C 40.125 -20.8125 39.375 -23.609375 37.875 -26.203125 C 36.375 -28.796875 34.359375 -30.84375 31.828125 -32.34375 C 29.296875 -33.84375 26.53125 -34.59375 23.53125 -34.59375 C 20.46875 -34.59375 17.65625 -33.796875 15.09375 -32.203125 C 12.53125 -30.609375 10.53125 -28.515625 9.09375 -25.921875 C 7.65625 -23.328125 6.9375 -20.625 6.9375 -17.8125 Z M 6.9375 -17.8125 "/></g></g></g><g fill="#000000" fill-opacity="1"><g transform="translate(772.859149, 507.5354)"><g><path d="M 10.5 -25.875 C 11.625 -29 13.609375 -31.46875 16.453125 -33.28125 C 19.296875 -35.09375 22.46875 -36.03125 25.96875 -36.09375 L 25.875 -34.40625 C 23.125 -34.28125 20.59375 -33.625 18.28125 -32.4375 C 15.96875 -31.25 14.125 -29.609375 12.75 -27.515625 C 11.375 -25.421875 10.6875 -23.0625 10.6875 -20.4375 L 10.6875 0 L 8.8125 0 L 8.8125 -35.4375 L 10.21875 -35.4375 Z M 10.5 -25.875 "/></g></g></g><g fill="#000000" fill-opacity="1"><g transform="translate(802.957993, 507.5354)"><g><path d="M 51.859375 -36.09375 C 55.109375 -36.09375 57.734375 -35.171875 59.734375 -33.328125 C 61.734375 -31.484375 62.796875 -29.1875 62.921875 -26.4375 L 62.921875 0 L 61.046875 0 L 61.046875 -25.96875 C 60.921875 -28.28125 60.0625 -30.25 58.46875 -31.875 C 56.875 -33.5 54.671875 -34.375 51.859375 -34.5 C 49.296875 -34.5 46.882812 -33.90625 44.625 -32.71875 C 42.375 -31.53125 40.53125 -29.921875 39.09375 -27.890625 C 37.65625 -25.859375 36.875 -23.59375 36.75 -21.09375 L 36.75 0 L 34.96875 0 L 34.96875 -25.96875 C 34.84375 -28.28125 33.96875 -30.25 32.34375 -31.875 C 30.71875 -33.5 28.5 -34.375 25.6875 -34.5 C 23.0625 -34.5 20.59375 -33.890625 18.28125 -32.671875 C 15.96875 -31.453125 14.125 -29.78125 12.75 -27.65625 C 11.375 -25.53125 10.6875 -23.15625 10.6875 -20.53125 L 10.6875 0 L 8.8125 0 L 8.8125 -35.4375 L 10.21875 -35.4375 L 10.5 -26.15625 C 11.75 -29.21875 13.765625 -31.640625 16.546875 -33.421875 C 19.328125 -35.203125 22.40625 -36.09375 25.78125 -36.09375 C 28.65625 -36.09375 31.171875 -35.21875 33.328125 -33.46875 C 35.484375 -31.71875 36.6875 -29.5625 36.9375 -27 C 38.25 -29.875 40.234375 -32.109375 42.890625 -33.703125 C 45.554688 -35.296875 48.546875 -36.09375 51.859375 -36.09375 Z M 51.859375 -36.09375 "/></g></g></g></svg>